<svg width="42" height="46" viewBox="0 0 42 46" fill="none" xmlns="http://www.w3.org/2000/svg">
    <path fill-rule="evenodd" clip-rule="evenodd" d="M37.6537 20.274L37.6545 20.2748C37.8023 20.436 37.9452 20.5918 38.079 20.7417C39.3668 21.8736 40.1808 23.5317 40.1808 25.381C40.1808 28.7917 37.4156 31.5568 34.0043 31.5568C30.5935 31.5568 27.8282 28.7917 27.8282 25.381C27.8282 23.5357 28.6385 21.8806 29.9215 20.749L29.917 20.7452C30.0607 20.5845 30.2153 20.417 30.3757 20.2433C31.4416 19.0894 32.7595 17.6624 32.7595 16.1172C32.7595 14.5721 31.4419 13.1453 30.3761 11.9913L30.3754 11.9905C30.2152 11.8169 30.0605 11.6495 29.917 11.4889C29.9185 11.4878 29.92 11.4866 29.9215 11.4854C28.6385 10.3538 27.8282 8.69862 27.8282 6.85331C27.8282 3.44259 30.5935 0.67757 34.0043 0.67757C37.4156 0.67757 40.1808 3.44259 40.1808 6.85331C40.1808 8.70264 39.3668 10.3608 38.079 11.4926C37.945 11.6428 37.8018 11.7989 37.6537 11.9604C36.5897 13.1197 35.2696 14.5582 35.2696 16.1172C35.2696 17.6761 36.5897 19.1146 37.6537 20.274ZM12.3524 25.3809C12.3524 21.9701 9.58723 19.2051 6.17626 19.2051C2.76531 19.2051 9.97277e-05 21.9701 9.97277e-05 25.3809C9.97277e-05 28.7918 2.76531 31.5568 6.17626 31.5568C9.58723 31.5568 12.3524 28.7918 12.3524 25.3809ZM0 6.85341C0 10.2641 2.76521 13.0292 6.17615 13.0292C9.58737 13.0292 12.3526 10.2641 12.3526 6.85341C12.3526 3.44269 9.58737 0.67767 6.17615 0.67767C2.76521 0.67767 0 3.44269 0 6.85341ZM20.0902 45.813C16.6793 45.813 13.9141 43.048 13.9141 39.6373C13.9141 36.2266 16.6793 33.4616 20.0902 33.4616C23.5014 33.4616 26.2667 36.2266 26.2667 39.6373C26.2667 43.048 23.5014 45.813 20.0902 45.813Z" fill="currentColor"/>
</svg>
